<svg width="128" height="128" viewBox="0 0 128 128" fill="none" xmlns="http://www.w3.org/2000/svg">
<g clip-path="url(#clip0_2001_8)">
<path d="M128 128H0V0H128V128ZM64 19C58.0905 19 52.2389 20.1643 46.7793 22.4258C41.3197 24.6872 36.3593 28.002 32.1807 32.1807C23.7415 40.6198 19 52.0653 19 64C19 83.89 31.9153 100.765 49.7803 106.75C52.0301 107.11 52.75 105.715 52.75 104.5V96.8945C40.3181 99.5874 37.644 90.9114 37.6299 90.8652C35.5599 85.6452 32.6348 84.25 32.6348 84.25C28.54 81.4601 32.9502 81.5498 32.9502 81.5498C37.4268 81.8633 39.8104 86.1403 39.835 86.1846C43.7498 93.0244 50.3645 90.9999 52.9297 89.9199C53.3347 86.995 54.5047 85.0146 55.7646 83.8896C45.7748 82.7646 35.29 78.8948 35.29 61.75C35.29 56.755 36.9998 52.7497 39.9248 49.5547C39.4746 48.4291 37.9002 43.7492 40.375 37.6748C40.3919 37.6694 44.1743 36.4727 52.75 42.2646C56.305 41.2747 60.175 40.7803 64 40.7803C67.825 40.7803 71.695 41.2747 75.25 42.2646C83.8257 36.4727 87.6081 37.6694 87.625 37.6748C90.0998 43.7492 88.5254 48.4291 88.0752 49.5547C91.0002 52.7497 92.71 56.755 92.71 61.75C92.71 78.94 82.1795 82.7197 72.1445 83.8447C73.7645 85.2397 75.25 87.985 75.25 92.1699V104.5C75.25 105.715 75.9699 107.155 78.2646 106.75C96.1296 100.72 109 83.89 109 64C109 58.0905 107.836 52.2389 105.574 46.7793C103.313 41.3197 99.998 36.3593 95.8193 32.1807C91.6407 28.002 86.6803 24.6872 81.2207 22.4258C75.7611 20.1643 69.9095 19 64 19Z" fill="white"/>
</g>
<defs>
<clipPath id="clip0_2001_8">
<rect width="128" height="128" rx="32" fill="white"/>
</clipPath>
</defs>
</svg>
