<svg width="128" height="128" viewBox="0 0 128 128" fill="none" xmlns="http://www.w3.org/2000/svg">
<g clip-path="url(#clip0_2006_30)">
<path d="M63.7256 31.6289C64.1895 31.6289 64.6172 31.7998 65.0078 32.1416L90.8623 53.8408V92.4561C90.8623 93.6523 90.5566 94.5557 89.9463 95.166C89.336 95.8007 88.4451 96.1181 87.2734 96.1182H74.3457V74.585C74.3457 73.7551 74.0895 73.0839 73.5771 72.5713C73.0889 72.0586 72.417 71.8018 71.5625 71.8018H55.9258C55.0713 71.8018 54.3877 72.0586 53.875 72.5713C53.3623 73.084 53.1055 73.7549 53.1055 74.585V96.1182H40.2148C39.043 96.1182 38.1396 95.8008 37.5049 95.166C36.8945 94.5557 36.5898 93.6523 36.5898 92.4561V53.8623L62.4443 32.1416C62.835 31.7998 63.2617 31.6289 63.7256 31.6289Z" fill="white"/>
<path fill-rule="evenodd" clip-rule="evenodd" d="M128 128H0V0H128V128ZM63.7256 25C62.1631 25 60.6982 25.5859 59.3311 26.7578L21.1719 58.8018C20.3908 59.4365 20 60.2296 20 61.1816C20 61.9385 20.2812 62.6221 20.8428 63.2324C21.4043 63.8182 22.173 64.1113 23.1494 64.1113C23.6621 64.1113 24.126 63.9893 24.541 63.7451C24.9805 63.501 25.3955 63.2324 25.7861 62.9395L30.6934 58.8164V93.9209C30.6934 96.5088 31.4141 98.499 32.8545 99.8906C34.3193 101.306 36.3577 102.015 38.9697 102.015H88.5186C91.1306 102.015 93.1573 101.307 94.5977 99.8906C96.0381 98.4746 96.7578 96.4844 96.7578 93.9209V58.7891L101.702 62.9395C102.068 63.2323 102.459 63.501 102.874 63.7451C103.313 63.9891 103.789 64.1113 104.302 64.1113C105.303 64.1113 106.072 63.8184 106.609 63.2324C107.171 62.6221 107.451 61.9384 107.451 61.1816C107.451 60.2296 107.06 59.4365 106.279 58.8018L96.7578 50.8057V35.9131C96.7578 35.1074 96.5137 34.4727 96.0254 34.0088C95.5615 33.5205 94.9268 33.2764 94.1211 33.2764H90.2031C89.422 33.2764 88.7871 33.5207 88.2988 34.0088C87.8105 34.4727 87.5664 35.1074 87.5664 35.9131V43.0869L68.1201 26.7578C66.7529 25.5859 65.2881 25 63.7256 25Z" fill="white"/>
</g>
<defs>
<clipPath id="clip0_2006_30">
<rect width="128" height="128" rx="32" fill="white"/>
</clipPath>
</defs>
</svg>
