<svg width="128" height="128" viewBox="0 0 128 128" fill="none" xmlns="http://www.w3.org/2000/svg">
<g clip-path="url(#clip0_2004_5)">
<path d="M128 128H0V0H128V128ZM70.7021 71.4453C69.6281 72.3729 68.5174 73.0811 67.3701 73.5693C66.2471 74.0332 65.1113 74.2646 63.9639 74.2646C62.8166 74.2646 61.6814 74.033 60.5586 73.5693C59.4357 73.0811 58.3367 72.3728 57.2627 71.4453L51.916 66.6846L24.0469 94.5527C24.7305 95.041 25.585 95.4316 26.6104 95.7246C27.6602 96.0176 28.8564 96.1641 30.1992 96.1641H97.7656C99.1082 96.164 100.292 96.0175 101.317 95.7246C102.367 95.4316 103.234 95.041 103.918 94.5527L76.0488 66.6846L70.7021 71.4453ZM20.6777 39.2188C20.4581 39.585 20.2509 40.22 20.0557 41.123C19.8848 42.0263 19.7988 43.1125 19.7988 44.3818V84.8115C19.7988 85.9834 19.8848 87.0088 20.0557 87.8877C20.2266 88.7666 20.458 89.5479 20.751 90.2314L47.8506 63.1689L20.6777 39.2188ZM80.1143 63.1689L107.214 90.2314C107.482 89.5479 107.702 88.7665 107.873 87.8877C108.068 87.0088 108.166 85.9834 108.166 84.8115V44.3818C108.166 43.1126 108.068 42.0263 107.873 41.123C107.678 40.2202 107.482 39.5851 107.287 39.2188L80.1143 63.1689ZM31.2979 33.0293C28.2951 33.0293 25.8173 33.6642 23.8643 34.9336L60.4482 67.1602C61.5957 68.1611 62.7676 68.6621 63.9639 68.6621C65.1846 68.6621 66.3564 68.1611 67.4795 67.1602L104.064 34.9336C102.136 33.6641 99.6697 33.0294 96.667 33.0293H31.2979Z" fill="white"/>
</g>
<defs>
<clipPath id="clip0_2004_5">
<rect width="128" height="128" rx="32" fill="white"/>
</clipPath>
</defs>
</svg>
