<svg width="128" height="128" viewBox="0 0 128 128" fill="none" xmlns="http://www.w3.org/2000/svg">
<g clip-path="url(#clip0_2006_38)">
<path fill-rule="evenodd" clip-rule="evenodd" d="M128 128H0V0H128V128ZM44.4805 23.0312C43.1867 23.0312 42.1494 23.3976 41.3682 24.1299C40.5869 24.8623 40.1963 25.79 40.1963 26.9131C40.1963 28.085 40.6602 29.2812 41.5879 30.502C42.2226 31.332 43.1134 32.2481 44.2607 33.249C45.4081 34.2499 46.7394 35.2872 48.2529 36.3613C49.7909 37.4111 51.4513 38.4366 53.2334 39.4375L52.0244 56.2471C48.6066 57.4921 45.6649 59.1642 43.1992 61.2637C40.7334 63.3633 38.8408 65.6826 37.5225 68.2217C36.2041 70.7363 35.5449 73.2881 35.5449 75.876C35.545 77.4383 36.0333 78.6954 37.0098 79.6475C37.9863 80.5752 39.293 81.0391 40.9287 81.0391H60.7402V98.1416C60.7403 99.533 60.8623 100.852 61.1064 102.097C61.3506 103.342 61.6563 104.428 62.0225 105.355C62.3886 106.308 62.7422 107.053 63.084 107.59C63.4501 108.127 63.7559 108.396 64 108.396C64.2196 108.395 64.5004 108.126 64.8418 107.59C65.208 107.053 65.5742 106.308 65.9404 105.355C66.3066 104.428 66.6123 103.342 66.8564 102.097C67.1006 100.852 67.2226 99.533 67.2227 98.1416V81.0391H87.0342C88.6943 81.0391 90.001 80.5752 90.9531 79.6475C91.9294 78.6954 92.4179 77.4381 92.418 75.876C92.418 73.2882 91.7587 70.7363 90.4404 68.2217C89.1221 65.6826 87.2295 63.3633 84.7637 61.2637C82.298 59.1642 79.3562 57.4922 75.9385 56.2471L74.7295 39.4375C76.5117 38.4121 78.1602 37.375 79.6738 36.3252C81.2119 35.2754 82.5547 34.25 83.7021 33.249C84.8496 32.2481 85.7402 31.332 86.375 30.502C87.3271 29.2812 87.8037 28.085 87.8037 26.9131C87.8037 25.79 87.4004 24.8623 86.5947 24.1299C85.8135 23.3975 84.7881 23.0312 83.5186 23.0312H44.4805Z" fill="white"/>
</g>
<defs>
<clipPath id="clip0_2006_38">
<rect width="128" height="128" rx="32" fill="white"/>
</clipPath>
</defs>
</svg>
