<svg width="128" height="128" viewBox="0 0 128 128" fill="none" xmlns="http://www.w3.org/2000/svg">
<g clip-path="url(#clip0_2004_20)">
<path d="M128 128H0V0H128V128ZM82 28C71.4251 28 62.7853 36.6398 62.7852 47.3047C62.7852 48.8346 62.9643 50.3199 63.2793 51.7148C47.2595 50.9047 32.9949 43.2096 23.5 31.5547C21.835 34.3897 20.8896 37.7205 20.8896 41.2305C20.8898 47.9352 24.2646 53.8751 29.4844 57.25C26.2896 57.2499 23.3198 56.3499 20.71 55V55.1348C20.71 64.4947 27.3696 72.325 36.1895 74.0801C33.3583 74.8582 30.3849 74.9656 27.5049 74.3945C28.7271 78.2307 31.121 81.5878 34.3496 83.9932C37.5782 86.3984 41.4795 87.7313 45.5049 87.8047C38.6814 93.207 30.2226 96.1272 21.5195 96.085C19.9896 96.085 18.4596 95.9954 16.9297 95.8154C25.4796 101.305 35.6501 104.5 46.54 104.5C81.9998 104.5 101.484 75.0696 101.484 49.5547C101.484 48.6999 101.484 47.89 101.439 47.0352C105.219 44.3352 108.459 40.9149 111.069 37C107.604 38.5749 103.87 39.6105 100 40.1055C103.96 37.7205 107.02 33.9395 108.46 29.3945C104.725 31.6445 100.585 33.2201 96.2197 34.1201C92.6648 30.2502 87.6699 28.0001 82 28Z" fill="white"/>
</g>
<defs>
<clipPath id="clip0_2004_20">
<rect width="128" height="128" rx="32" fill="white"/>
</clipPath>
</defs>
</svg>
