<svg width="128" height="128" viewBox="0 0 128 128" fill="none" xmlns="http://www.w3.org/2000/svg">
<g clip-path="url(#clip0_2004_12)">
<path d="M128 128H0V0H128V128ZM56.8447 32.7695C51.8949 32.7695 46.5401 32.9047 40.6904 33.2197C34.7504 33.4897 30.8796 33.8955 28.7646 34.4805C24.7151 35.6055 22.1055 38.2151 20.9805 42.2646C19.7205 46.8996 19 54.145 19 64L19.2695 67.7803C19.2695 70.4801 19.4048 73.5849 19.7197 77.1846C19.9897 80.7846 20.3955 83.6204 20.9805 85.7354C22.1055 89.7849 24.7151 92.3945 28.7646 93.5195C33.3996 94.7795 45.145 95.5 64 95.5L71.1553 95.2305C76.1051 95.2305 81.4599 95.0953 87.3096 94.7803C93.2496 94.5103 97.1204 94.1045 99.2354 93.5195C103.285 92.3945 105.895 89.7849 107.02 85.7354C108.28 81.1004 109 73.855 109 64L108.73 60.2197C108.73 57.5199 108.595 54.4151 108.28 50.8154C108.01 47.2154 107.605 44.3796 107.02 42.2646C105.895 38.2151 103.285 35.6055 99.2354 34.4805C94.6004 33.2205 82.855 32.5 64 32.5L56.8447 32.7695ZM78.3555 64L55 77.5V50.5L78.3555 64Z" fill="white"/>
</g>
<defs>
<clipPath id="clip0_2004_12">
<rect width="128" height="128" rx="32" fill="white"/>
</clipPath>
</defs>
</svg>
